<svg width="54" height="47" viewBox="0 0 54 47" fill="none" xmlns="http://www.w3.org/2000/svg">
<path d="M15.4287 46.1962C16.4593 46.1962 17.2948 45.3608 17.2948 44.3302C17.2948 43.2996 16.4593 42.4641 15.4287 42.4641C14.3981 42.4641 13.5626 43.2996 13.5626 44.3302C13.5626 45.3608 14.3981 46.1962 15.4287 46.1962Z" stroke="white" stroke-linecap="round" stroke-linejoin="round"/>
<path d="M35.9555 46.1962C36.9861 46.1962 37.8216 45.3608 37.8216 44.3302C37.8216 43.2996 36.9861 42.4641 35.9555 42.4641C34.9249 42.4641 34.0895 43.2996 34.0895 44.3302C34.0895 45.3608 34.9249 46.1962 35.9555 46.1962Z" stroke="white" stroke-linecap="round" stroke-linejoin="round"/>
<path d="M0.5 7.00854H7.96426L12.9653 31.9952C13.136 32.8543 13.6033 33.626 14.2856 34.1753C14.968 34.7245 15.8217 35.0163 16.6975 34.9995H34.8356C35.7114 35.0163 36.5651 34.7245 37.2474 34.1753C37.9297 33.626 38.3971 32.8543 38.5677 31.9952L41.5535 16.3389H9.83033" stroke="white" stroke-linecap="round" stroke-linejoin="round"/>
<ellipse cx="43.6479" cy="10.3713" rx="9.79509" ry="10.3713" fill="#FF4B32"/>
<path d="M45.9133 13.3047H40.3235V12.5254L43.2766 9.24414C43.7141 8.74805 44.0149 8.3457 44.179 8.03711C44.3469 7.72461 44.4309 7.40234 44.4309 7.07031C44.4309 6.625 44.2961 6.25977 44.0266 5.97461C43.7571 5.68945 43.3977 5.54688 42.9485 5.54688C42.4094 5.54688 41.9895 5.70117 41.6887 6.00977C41.3918 6.31445 41.2434 6.74023 41.2434 7.28711H40.1594C40.1594 6.50195 40.4114 5.86719 40.9153 5.38281C41.4231 4.89844 42.1008 4.65625 42.9485 4.65625C43.7415 4.65625 44.3684 4.86523 44.8293 5.2832C45.2903 5.69727 45.5208 6.25 45.5208 6.94141C45.5208 7.78125 44.9856 8.78125 43.9153 9.94141L41.6301 12.4199H45.9133V13.3047Z" fill="white"/>
</svg>
